<svg width="33" height="33" viewBox="0 0 33 33" fill="none" xmlns="http://www.w3.org/2000/svg">
<path d="M17.934 15.3096C18.1303 15.0902 18.3035 14.8592 18.4998 14.6629C19.1349 14.0625 19.874 13.7622 20.7516 13.7738C21.2366 13.7738 21.7101 13.8084 22.172 13.947C23.2344 14.2472 23.8464 14.9863 24.1351 16.014C24.3545 16.7877 24.4007 17.5845 24.4007 18.3813C24.4007 20.0673 24.4007 21.7417 24.4007 23.4276C24.4007 23.5893 24.3545 23.624 24.2044 23.624C23.3383 23.624 22.4722 23.624 21.6061 23.624C21.456 23.624 21.4214 23.5778 21.4214 23.4392C21.4214 21.8341 21.4214 20.2405 21.4214 18.6353C21.4214 18.2312 21.3983 17.8386 21.2828 17.4459C21.075 16.73 20.5553 16.3604 19.8047 16.3951C18.777 16.4528 18.2458 16.9609 18.1072 18.0002C18.0725 18.2543 18.061 18.4968 18.061 18.7508C18.061 20.3098 18.061 21.8687 18.061 23.4276C18.061 23.5778 18.0264 23.624 17.8647 23.624C16.9871 23.624 16.121 23.624 15.2434 23.624C15.1048 23.624 15.0586 23.5893 15.0586 23.4507C15.0586 20.3675 15.0586 17.2843 15.0586 14.201C15.0586 14.0509 15.1048 14.0163 15.2549 14.0163C16.0863 14.0163 16.9178 14.0163 17.7377 14.0163C17.8878 14.0163 17.934 14.0625 17.9224 14.2126C17.9224 14.5821 17.9224 14.9516 17.9224 15.3212L17.934 15.3096Z" fill="black"/>
<path d="M13.1889 18.8388C13.1889 20.3631 13.1889 21.8874 13.1889 23.4117C13.1889 23.5849 13.1427 23.6311 12.9695 23.6311C12.1034 23.6311 11.2374 23.6311 10.3713 23.6311C10.2327 23.6311 10.1865 23.5965 10.1865 23.4579C10.1865 20.3747 10.1865 17.2799 10.1865 14.1967C10.1865 14.0696 10.2212 14.0234 10.3482 14.0234C11.2258 14.0234 12.1034 14.0234 12.9811 14.0234C13.1543 14.0234 13.1774 14.0927 13.1774 14.2313C13.1774 15.7671 13.1774 17.303 13.1774 18.8504L13.1889 18.8388Z" fill="black"/>
<path d="M13.4292 10.955C13.4292 11.9134 12.6555 12.6987 11.697 12.6987C10.7501 12.6987 9.96484 11.9134 9.96484 10.9665C9.96484 10.0196 10.7501 9.23438 11.697 9.23438C12.6439 9.23438 13.4292 10.0081 13.4292 10.955Z" fill="black"/>
</svg>
