<svg width="33" height="33" viewBox="0 0 33 33" fill="none" xmlns="http://www.w3.org/2000/svg">
<path fill-rule="evenodd" clip-rule="evenodd" d="M16.7476 9.04688C12.6908 9.04688 9.5498 12.0176 9.5498 16.0317C9.5498 18.1293 10.4123 19.95 11.8071 21.1958C11.9242 21.3023 11.9988 21.4513 11.9988 21.6111L12.0413 22.8888C12.052 23.2934 12.4779 23.5596 12.8506 23.3999L14.2773 22.7716C14.3945 22.7184 14.5329 22.7078 14.6607 22.7397C15.3208 22.9207 16.0129 23.0165 16.7476 23.0165C20.8043 23.0165 23.9454 20.0459 23.9454 16.0317C23.9454 12.0176 20.8043 9.04688 16.7476 9.04688ZM21.0705 14.4239L18.9516 17.7779C18.6109 18.3103 17.8975 18.4487 17.3864 18.0654L15.7041 16.7983C15.5551 16.6812 15.3421 16.6812 15.1824 16.7983L12.9144 18.5232C12.6163 18.7575 12.2117 18.3955 12.414 18.0654L14.5329 14.7114C14.8736 14.179 15.587 14.0406 16.0981 14.4239L17.7804 15.691C17.9295 15.8081 18.1424 15.8081 18.3021 15.691L20.5701 13.9661C20.8682 13.7318 21.2728 14.0938 21.0705 14.4239Z" fill="black"/>
</svg>
