<svg width="18" height="18" viewBox="0 0 18 18" fill="none" xmlns="http://www.w3.org/2000/svg">
<path fill-rule="evenodd" clip-rule="evenodd" d="M5.09483 2.4734C4.77042 1.70201 4.446 1.80289 4.20089 1.79568C3.97019 1.78126 3.70341 1.78125 3.44388 1.78125C3.18434 1.78125 2.7518 1.88223 2.38413 2.27874C2.02366 2.67525 1 3.63405 1 5.58057C1 7.52708 2.42023 9.41595 2.61488 9.67549C2.80953 9.93502 5.4048 13.9433 9.38433 15.6519C10.3288 16.0629 11.0642 16.3008 11.6409 16.4882C12.5926 16.791 13.4504 16.7478 14.1353 16.6468C14.8995 16.5315 16.4783 15.688 16.81 14.7652C17.1416 13.8424 17.1416 13.0494 17.0407 12.8836C16.9398 12.7178 16.6802 12.6168 16.2837 12.4222C15.8872 12.2275 13.9407 11.2688 13.5802 11.1318C13.2197 11.002 12.953 10.9371 12.6863 11.3264C12.4195 11.7229 11.6625 12.6168 11.4318 12.8764C11.2011 13.1431 10.9703 13.172 10.5738 12.9773C10.1773 12.7827 8.9013 12.3573 7.38734 11.0092C6.21223 9.95663 5.41195 8.65892 5.18125 8.26241C4.95056 7.86589 5.15962 7.64962 5.35427 7.45497C5.5345 7.27473 5.75083 6.9936 5.94548 6.7629C6.14013 6.5322 6.21226 6.36636 6.34203 6.09961C6.4718 5.83287 6.40688 5.6022 6.30595 5.40755C6.20502 5.2129 5.41204 3.25921 5.08762 2.46619L5.09483 2.4734Z" stroke="black" stroke-width="0.72093" stroke-miterlimit="10"/>
<path d="M9.57178 8.53636L16.0385 6.23664L10.8118 1.78125L9.57178 8.53636Z" stroke="black" stroke-width="0.72093" stroke-miterlimit="10"/>
</svg>
