<svg width="33" height="33" viewBox="0 0 33 33" fill="none" xmlns="http://www.w3.org/2000/svg">
<path fill-rule="evenodd" clip-rule="evenodd" d="M21.2629 10.908C19.9089 9.55399 18.125 8.8125 16.2122 8.8125C12.2791 8.8125 9.07668 12.0149 9.07668 15.948C9.07668 17.2053 9.40982 18.4304 10.0331 19.5158L9.02295 23.2125L12.8056 22.2238C13.848 22.7934 15.0194 23.0943 16.2122 23.0943C20.1453 23.0943 23.3477 19.8919 23.3477 15.9588C23.3477 14.0567 22.6062 12.2621 21.2629 10.908ZM16.2122 21.88C15.1483 21.88 14.1059 21.5898 13.1925 21.0525L12.9776 20.9235L10.7316 21.5146L11.3334 19.3224L11.1937 19.0967C10.6027 18.151 10.291 17.0656 10.291 15.9373C10.291 12.6704 12.9561 10.0053 16.223 10.0053C17.8027 10.0053 19.2964 10.6286 20.414 11.7462C21.5316 12.8638 22.1549 14.3576 22.1441 15.9373C22.1441 19.2041 19.4791 21.8692 16.2122 21.8692V21.88ZM19.4683 17.4418C19.2856 17.3558 18.4152 16.9259 18.254 16.8615C18.0928 16.797 17.9746 16.7755 17.8564 16.9474C17.7382 17.1301 17.3943 17.5277 17.2868 17.6459C17.1794 17.7641 17.0827 17.7749 16.9 17.6889C16.7173 17.6029 16.1477 17.4095 15.4707 16.8077C14.9441 16.3349 14.5788 15.7546 14.4821 15.5719C14.3853 15.3892 14.4713 15.2925 14.5573 15.2065C14.6325 15.1313 14.74 15.0024 14.8259 14.8949C14.9119 14.7874 14.9441 14.7122 15.0086 14.594C15.0731 14.4758 15.0409 14.3683 14.9979 14.2824C14.9549 14.1964 14.6003 13.3152 14.4498 12.9606C14.3101 12.6167 14.1597 12.6597 14.0522 12.6597C13.9447 12.6597 13.8265 12.6597 13.7083 12.6597C13.5901 12.6597 13.3967 12.7026 13.2355 12.8853C13.0743 13.068 12.6122 13.4979 12.6122 14.3683C12.6122 15.2388 13.2462 16.0877 13.343 16.2167C13.4289 16.3349 14.6003 18.1403 16.3841 18.9032C16.814 19.0859 17.1471 19.1934 17.405 19.2794C17.8349 19.4191 18.2218 19.3976 18.5334 19.3546C18.8773 19.3009 19.5865 18.9247 19.737 18.5056C19.8874 18.0865 19.8874 17.7319 19.8444 17.6567C19.8015 17.5815 19.6832 17.5385 19.5006 17.4525L19.4683 17.4418Z" fill="black"/>
</svg>
