<svg width="217" height="30" viewBox="0 0 217 30" fill="none" xmlns="http://www.w3.org/2000/svg">
<g clip-path="url(#clip0_576_3370)">
<path d="M25.0042 4.76195C21.0685 0.0856996 14.0287 -1.34456 8.57143 1.35873C-1.79036 6.07048 -1.4962 20.8854 8.17582 25.8913C2.75909 28.1888 3.02789 27.8845 0 28.8482H13.9983C17.153 27.4078 20.1809 25.0696 22.6915 21.8997C23.6653 22.0012 24.6391 22.1229 25.6078 22.2548C24.918 24.6284 23.9594 26.8397 22.798 28.8482H27.7227C30.0558 23.4314 31.7295 11.9285 24.9992 4.76195H25.0042ZM21.3931 4.61993C21.738 5.79153 21.5503 7.06964 20.8605 8.32239C19.4201 6.18206 17.6805 4.67065 15.7532 3.88959C16.6154 2.76871 16.4328 1.43988 15.18 0.800831C18.2739 1.00878 20.7337 2.39339 21.3931 4.61993ZM9.9814 14.6115C11.3609 14.6115 12.8724 14.3934 14.328 13.9319L16.6864 20.3122C14.2113 21.1745 11.5486 21.1998 9.18005 20.5557C7.93745 18.5371 7.34911 16.3359 7.12595 14.2767C8.00845 14.4948 8.9721 14.6115 9.9814 14.6115ZM7.06509 13.5718C6.83178 10.2852 7.46576 7.47539 7.70921 6.55231C8.9721 6.85662 10.235 6.7349 11.5486 6.40523L14.0947 13.2979C11.6145 14.0739 9.05833 14.1246 7.06509 13.5718ZM12.1978 6.20742C13.486 5.77632 14.5562 5.14741 15.2815 4.43735C17.5689 5.28435 19.2629 7.08993 20.47 8.96651C20.3229 9.17953 20.1606 9.39255 19.9882 9.60049C18.7303 11.0967 16.8893 12.3139 14.7388 13.0798L12.1978 6.20742ZM7.28825 3.03752C8.98732 1.54639 11.6855 0.724753 13.8918 1.07978C17.4675 1.87099 14.9112 4.74166 11.6602 5.66981C10.4074 6.04005 9.16483 6.14149 8.15554 5.9589C6.25359 5.61909 5.87827 4.36127 7.28825 3.03752ZM3.77346 6.40523C4.36179 5.53794 5.04649 4.74673 5.82756 4.04174C5.54353 5.0409 6.06086 5.89297 7.06002 6.32915C6.82164 7.07978 6.1268 10.4729 6.35503 13.3435C3.05833 12.1111 1.73457 9.3114 3.77346 6.40523ZM2.14539 9.74758C2.14539 9.74758 2.14539 9.73743 2.14539 9.73236C2.50549 11.8321 4.13863 13.3029 6.40575 14.0637C6.62384 16.3562 7.22739 18.4306 8.21133 20.2362C3.7836 18.7045 1.0448 14.1956 2.14032 9.74758H2.14539ZM8.96703 25.5312C4.53423 23.4162 1.64835 18.9479 1.5317 14.0536C2.33812 17.4264 5.24937 20.1347 8.74387 21.1288C9.50465 22.3106 10.4429 23.3554 11.5486 24.2581C10.7016 24.7045 9.83939 25.1254 8.96703 25.5312ZM12.1927 23.9133C11.2088 23.1423 10.3973 22.2852 9.73795 21.3824C10.6357 21.5751 11.5638 21.6715 12.5021 21.6715C13.9577 21.6715 15.4691 21.4382 16.8994 20.9665C15.4032 22.057 13.8157 23.0257 12.1927 23.9082V23.9133ZM22.9958 14.7687C22.1691 16.1381 19.486 19.5312 17.3305 20.1094L14.967 13.7188C17.432 12.816 19.4505 11.4568 20.8453 9.59542C22.2046 11.9183 22.8538 14.1956 23.0008 14.7586C23.0008 14.7586 22.9958 14.7687 22.9907 14.7738L22.9958 14.7687ZM21.2764 8.96651C22.661 6.74504 22.59 4.21419 20.8554 2.41875C20.8757 2.42889 20.896 2.44411 20.9112 2.45425C24.8013 4.84817 25.7498 10.0671 23.4725 13.9319C23.2037 12.9226 22.2046 10.4171 21.2713 8.96651H21.2764ZM25.9729 20.0181C25.202 19.9471 24.4311 19.8913 23.6602 19.8406C24.1674 18.9682 24.634 18.0451 25.06 17.0865C25.4505 17.0865 25.8411 17.0916 26.2265 17.1018C26.186 18.0908 26.0997 19.0595 25.9729 20.0181ZM25.2578 15.352C25.4049 14.8955 25.5469 14.4289 25.6737 13.9572C25.8664 13.942 26.0642 13.9268 26.257 13.9166C26.3178 14.3782 26.3736 14.8397 26.4142 15.3013C26.0287 15.3165 25.6382 15.3368 25.2527 15.357L25.2578 15.352Z" fill="white"/>
<path d="M44.1659 8.47656C46.3823 8.47656 48.056 8.95839 49.187 9.92711C50.2774 10.8502 50.8252 12.1892 50.8252 13.9339C50.8252 15.6786 50.2774 17.0176 49.187 17.9406C48.056 18.9094 46.3772 19.3912 44.1659 19.3912H37.7246V8.47656H44.1659ZM44.1659 15.9626C45.9004 15.9626 46.7728 15.2881 46.7728 13.9339C46.7728 12.5797 45.9055 11.9051 44.1659 11.9051H41.7821V15.9575H44.1659V15.9626Z" fill="white"/>
<path d="M51.9971 8.47656H56.0495V19.3912H51.9971V8.47656Z" fill="white"/>
<path d="M71.0211 8.47656V19.3912H66.3449L61.6686 13.5433V19.3912H57.6162V8.47656H62.2925L66.9687 14.3244V8.47656H71.0211Z" fill="white"/>
<path d="M84.1215 8.47656V11.5958H76.6354V12.529H83.9642V15.3388H76.6354V16.272H84.1215V19.3912H72.583V8.47656H84.1215Z" fill="white"/>
<path d="M91.6083 15.2664C88.8949 15.1853 87.0639 14.8607 86.1206 14.2977C85.3091 13.8311 84.9033 12.9892 84.9033 11.7719C84.9033 10.5547 85.375 9.75332 86.3234 9.2157C87.3733 8.62229 89.1383 8.32812 91.6083 8.32812C94.0783 8.32812 95.8027 8.67301 96.8019 9.35771C97.6945 9.96126 98.1409 10.9452 98.1409 12.3045H94.0884C94.0884 11.9494 93.9211 11.7212 93.5914 11.6198C93.2668 11.5031 92.6075 11.4473 91.6083 11.4473C90.5179 11.4473 89.8078 11.4879 89.4883 11.5741C89.26 11.635 89.1434 11.7618 89.1434 11.9494C89.1434 12.1269 89.26 12.2436 89.4883 12.3095C89.7774 12.3704 90.4874 12.4262 91.6083 12.4668C94.3116 12.5733 96.1375 12.9029 97.0808 13.4659C97.9025 13.9528 98.3133 14.8049 98.3133 16.0221C98.3133 17.2394 97.8416 18.0661 96.8932 18.6291C95.8332 19.2529 94.0682 19.5623 91.6083 19.5623C89.1485 19.5623 87.3733 19.2174 86.3234 18.5327C85.375 17.919 84.9033 16.9351 84.9033 15.5859H88.9557C88.9557 15.941 89.118 16.1692 89.4376 16.2706C89.7622 16.3873 90.4824 16.4431 91.6032 16.4431C92.7241 16.4431 93.4037 16.4025 93.7233 16.3163C93.9616 16.2554 94.0834 16.1286 94.0834 15.941C94.0834 15.733 93.9667 15.5859 93.7385 15.5048C93.3936 15.378 92.6835 15.3019 91.6032 15.2715L91.6083 15.2664Z" fill="white"/>
<path d="M112.813 8.47656V19.3912H108.761V15.7242H103.461V19.3912H99.4082V8.47656H103.461V12.1384H108.761V8.47656H112.813Z" fill="white"/>
<path d="M127.973 14.5587C127.826 16.1513 127.177 17.3736 126.026 18.2256C124.829 19.1081 123.155 19.5494 121.005 19.5494C118.707 19.5494 116.957 19.0574 115.75 18.0684C114.573 17.0997 113.99 15.7252 113.99 13.9349C113.99 12.1445 114.579 10.77 115.75 9.80129C116.957 8.81228 118.707 8.32031 121.005 8.32031C123.155 8.32031 124.829 8.76156 126.026 9.64407C127.182 10.4961 127.831 11.7185 127.973 13.311H123.87C123.581 12.2713 122.623 11.754 121 11.754C119.022 11.754 118.038 12.4792 118.038 13.9349C118.038 15.3905 119.027 16.1208 121 16.1208C122.623 16.1208 123.576 15.5984 123.87 14.5587H127.973Z" fill="white"/>
<path d="M142.24 8.47656V19.3912H138.187V15.7242H132.887V19.3912H128.835V8.47656H132.887V12.1384H138.187V8.47656H142.24Z" fill="white"/>
<path d="M153.627 8.47656L158.303 19.3912H154.093L153.297 17.5197H148.027L147.231 19.3912H143.021L147.698 8.47656H153.622H153.627ZM149.245 14.7149H152.085L150.665 11.3929L149.245 14.7149Z" fill="white"/>
<path d="M172.494 8.47656V19.3912H167.818L163.141 13.5433V19.3912H159.089V8.47656H163.765L168.441 14.3244V8.47656H172.494Z" fill="white"/>
<path d="M180.497 8.47656C182.713 8.47656 184.387 8.95839 185.518 9.92711C186.608 10.8502 187.156 12.1892 187.156 13.9339C187.156 15.6786 186.608 17.0176 185.518 17.9406C184.387 18.9094 182.708 19.3912 180.497 19.3912H174.056V8.47656H180.497ZM180.497 15.9626C182.231 15.9626 183.104 15.2881 183.104 13.9339C183.104 12.5797 182.237 11.9051 180.497 11.9051H178.113V15.9575H180.497V15.9626Z" fill="white"/>
<path d="M192.381 19.399H188.328V8.48438H195.55C197.265 8.48438 198.573 8.85969 199.481 9.60525C200.364 10.3204 200.805 11.35 200.805 12.694C200.805 14.388 200.11 15.585 198.715 16.2798L200.805 19.399H196.595L194.927 16.9036H192.386V19.399H192.381ZM192.381 13.47H195.687C196.392 13.47 196.747 13.2113 196.747 12.6889C196.747 12.1665 196.392 11.9079 195.687 11.9079H192.381V13.47Z" fill="white"/>
<path d="M212.105 8.47656L216.781 19.3912H212.572L211.776 17.5197H206.506L205.71 19.3912H201.5L206.176 8.47656H212.1H212.105ZM207.723 14.7149H210.563L209.143 11.3929L207.723 14.7149Z" fill="white"/>
<path d="M38.1203 26.2138V26.1986C38.1203 24.7227 39.231 23.5156 40.8287 23.5156C41.8075 23.5156 42.3908 23.8402 42.8726 24.317L42.1474 25.1538C41.7467 24.7887 41.3409 24.5706 40.8185 24.5706C39.9411 24.5706 39.3122 25.2958 39.3122 26.1885V26.2037C39.3122 27.0913 39.9259 27.8368 40.8185 27.8368C41.4119 27.8368 41.7771 27.5985 42.1829 27.2282L42.9081 27.9636C42.3756 28.5368 41.7822 28.8918 40.778 28.8918C39.2513 28.8918 38.1152 27.7151 38.1152 26.224L38.1203 26.2138Z" fill="white"/>
<path d="M43.2119 26.8267V26.8115C43.2119 25.6703 44.1299 24.7422 45.3675 24.7422C46.605 24.7422 47.5078 25.6551 47.5078 26.7963V26.8115C47.5078 27.9527 46.5898 28.8808 45.3522 28.8808C44.1147 28.8808 43.2119 27.9679 43.2119 26.8267ZM46.397 26.8267V26.8115C46.397 26.2282 45.9761 25.716 45.3522 25.716C44.7284 25.716 44.3227 26.213 44.3227 26.7963V26.8115C44.3227 27.3998 44.7436 27.907 45.3675 27.907C45.9913 27.907 46.397 27.41 46.397 26.8267Z" fill="white"/>
<path d="M48.0312 24.8183H49.1572V25.3812C49.4159 25.0465 49.7506 24.7422 50.3237 24.7422C51.1758 24.7422 51.6728 25.3052 51.6728 26.2181V28.7895H50.5469V26.5731C50.5469 26.0406 50.2933 25.7667 49.8673 25.7667C49.4412 25.7667 49.1623 26.0406 49.1623 26.5731V28.7895H48.0363V24.8132L48.0312 24.8183Z" fill="white"/>
<path d="M52.042 28.2625L52.5238 27.522C52.9549 27.8314 53.4063 27.9987 53.7766 27.9987C54.1012 27.9987 54.2533 27.8821 54.2533 27.7046V27.6893C54.2533 27.4459 53.8679 27.3647 53.4317 27.2278C52.8738 27.0655 52.2449 26.8068 52.2449 26.0359V26.0207C52.2449 25.2143 52.8991 24.7578 53.7005 24.7578C54.2026 24.7578 54.7554 24.9303 55.1815 25.2194L54.7504 26.0004C54.3598 25.7722 53.9642 25.6302 53.6751 25.6302C53.386 25.6302 53.2592 25.7468 53.2592 25.9041V25.9193C53.2592 26.1424 53.6396 26.2439 54.0657 26.396C54.6236 26.5837 55.2677 26.8474 55.2677 27.5727V27.5879C55.2677 28.4704 54.6083 28.8711 53.7461 28.8711C53.1882 28.8711 52.5695 28.6834 52.042 28.2726V28.2625Z" fill="white"/>
<path d="M55.9631 27.6644V25.7827H55.4863V24.8191H55.9631V23.8047H57.089V24.8191H58.0223V25.7827H57.089V27.4818C57.089 27.7404 57.2006 27.8672 57.4542 27.8672C57.6622 27.8672 57.8498 27.8165 58.0121 27.7252V28.628C57.7737 28.77 57.4999 28.8563 57.1245 28.8563C56.4348 28.8563 55.9682 28.5824 55.9682 27.6644H55.9631Z" fill="white"/>
<path d="M58.5596 24.8117H59.6855V25.6131C59.9138 25.0653 60.284 24.7103 60.9535 24.7357V25.9123H60.8926C60.142 25.9123 59.6855 26.3637 59.6855 27.3122V28.7779H58.5596V24.8016V24.8117Z" fill="white"/>
<path d="M61.3342 27.3839V24.8125H62.4601V27.0289C62.4601 27.5614 62.7137 27.8353 63.1398 27.8353C63.5658 27.8353 63.8447 27.5614 63.8447 27.0289V24.8125H64.9707V28.7888H63.8447V28.2259C63.5861 28.5606 63.2513 28.8649 62.6782 28.8649C61.8261 28.8649 61.3291 28.3019 61.3291 27.389L61.3342 27.3839Z" fill="white"/>
<path d="M65.4932 26.8267V26.8115C65.4932 25.6754 66.3605 24.7422 67.5777 24.7422C68.3283 24.7422 68.7949 24.9958 69.1652 25.4117L68.4754 26.1522C68.2218 25.8834 67.9733 25.716 67.5726 25.716C67.0096 25.716 66.609 26.213 66.609 26.7963V26.8115C66.609 27.4201 66.9995 27.907 67.6183 27.907C67.9987 27.907 68.2573 27.7447 68.5312 27.4861L69.1905 28.1555C68.8051 28.5765 68.3588 28.8808 67.5675 28.8808C66.3757 28.8808 65.4982 27.9628 65.4982 26.8267H65.4932Z" fill="white"/>
<path d="M69.8098 27.6644V25.7827H69.333V24.8191H69.8098V23.8047H70.9357V24.8191H71.8689V25.7827H70.9357V27.4818C70.9357 27.7404 71.0473 27.8672 71.3009 27.8672C71.5088 27.8672 71.6965 27.8165 71.8588 27.7252V28.628C71.6204 28.77 71.3465 28.8563 70.9712 28.8563C70.2814 28.8563 69.8148 28.5824 69.8148 27.6644H69.8098Z" fill="white"/>
<path d="M72.4268 23.375H73.6136V24.3742H72.4268V23.375ZM72.4572 24.8154H73.5831V28.7917H72.4572V24.8154Z" fill="white"/>
<path d="M74.3486 24.8183H75.4746V25.3812C75.7332 25.0465 76.068 24.7422 76.6411 24.7422C77.4932 24.7422 77.9902 25.3052 77.9902 26.2181V28.7895H76.8643V26.5731C76.8643 26.0406 76.6107 25.7667 76.1846 25.7667C75.7586 25.7667 75.4797 26.0406 75.4797 26.5731V28.7895H74.3537V24.8132L74.3486 24.8183Z" fill="white"/>
<path d="M78.69 29.5706L79.0755 28.7236C79.4812 28.9518 79.892 29.0888 80.4195 29.0888C81.1904 29.0888 81.5556 28.7185 81.5556 28.0085V27.8157C81.2208 28.2164 80.8607 28.4599 80.2572 28.4599C79.329 28.4599 78.4922 27.7853 78.4922 26.6086V26.5934C78.4922 25.4066 79.3443 24.7422 80.2572 24.7422C80.8709 24.7422 81.2361 25.0009 81.5404 25.3356V24.8183H82.6663V27.8969C82.6663 28.6069 82.4939 29.1293 82.1642 29.459C81.794 29.8293 81.2208 29.9916 80.4499 29.9916C79.8058 29.9916 79.1972 29.8445 78.6951 29.5757L78.69 29.5706ZM81.5505 26.6086V26.5934C81.5505 26.0507 81.1296 25.6754 80.5818 25.6754C80.034 25.6754 79.6181 26.0558 79.6181 26.5934V26.6086C79.6181 27.1564 80.034 27.5266 80.5818 27.5266C81.1296 27.5266 81.5505 27.1462 81.5505 26.6086Z" fill="white"/>
<path d="M85.4914 27.6644V25.7827H85.0146V24.8191H85.4914V23.8047H86.6174V24.8191H87.5506V25.7827H86.6174V27.4818C86.6174 27.7404 86.7289 27.8672 86.9825 27.8672C87.1905 27.8672 87.3781 27.8165 87.5404 27.7252V28.628C87.3021 28.77 87.0282 28.8563 86.6529 28.8563C85.9631 28.8563 85.4965 28.5824 85.4965 27.6644H85.4914Z" fill="white"/>
<path d="M87.8906 26.8267V26.8115C87.8906 25.6703 88.8086 24.7422 90.0462 24.7422C91.2837 24.7422 92.1865 25.6551 92.1865 26.7963V26.8115C92.1865 27.9527 91.2685 28.8808 90.0309 28.8808C88.7934 28.8808 87.8906 27.9679 87.8906 26.8267ZM91.0808 26.8267V26.8115C91.0808 26.2282 90.6599 25.716 90.036 25.716C89.4122 25.716 89.0064 26.213 89.0064 26.7963V26.8115C89.0064 27.3998 89.4274 27.907 90.0512 27.907C90.6751 27.907 91.0808 27.41 91.0808 26.8267Z" fill="white"/>
<path d="M92.7139 24.8183H93.8398V25.3812C94.0985 25.0465 94.4383 24.7422 95.0114 24.7422C95.5287 24.7422 95.9243 24.9704 96.1323 25.3711C96.4822 24.9653 96.8981 24.7422 97.4358 24.7422C98.2726 24.7422 98.7798 25.2443 98.7798 26.2029V28.7895H97.6538V26.5731C97.6538 26.0406 97.4155 25.7667 96.9945 25.7667C96.5735 25.7667 96.3149 26.0406 96.3149 26.5731V28.7895H95.1889V26.5731C95.1889 26.0406 94.9506 25.7667 94.5296 25.7667C94.1086 25.7667 93.85 26.0406 93.85 26.5731V28.7895H92.724V24.8132L92.7139 24.8183Z" fill="white"/>
<path d="M99.2666 26.8267V26.8115C99.2666 25.6703 100.185 24.7422 101.422 24.7422C102.66 24.7422 103.562 25.6551 103.562 26.7963V26.8115C103.562 27.9527 102.644 28.8808 101.407 28.8808C100.169 28.8808 99.2666 27.9679 99.2666 26.8267ZM102.457 26.8267V26.8115C102.457 26.2282 102.036 25.716 101.412 25.716C100.788 25.716 100.382 26.213 100.382 26.7963V26.8115C100.382 27.3998 100.803 27.907 101.427 27.907C102.051 27.907 102.457 27.41 102.457 26.8267Z" fill="white"/>
<path d="M104.084 24.8117H105.21V25.6131C105.438 25.0653 105.808 24.7103 106.478 24.7357V25.9123H106.417C105.666 25.9123 105.21 26.3637 105.21 27.3122V28.7779H104.084V24.8016V24.8117Z" fill="white"/>
<path d="M106.89 24.8117H108.016V25.6131C108.244 25.0653 108.614 24.7103 109.284 24.7357V25.9123H109.223C108.472 25.9123 108.016 26.3637 108.016 27.3122V28.7779H106.89V24.8016V24.8117Z" fill="white"/>
<path d="M109.375 26.8267V26.8115C109.375 25.6703 110.293 24.7422 111.531 24.7422C112.768 24.7422 113.671 25.6551 113.671 26.7963V26.8115C113.671 27.9527 112.753 28.8808 111.515 28.8808C110.278 28.8808 109.375 27.9679 109.375 26.8267ZM112.56 26.8267V26.8115C112.56 26.2282 112.139 25.716 111.515 25.716C110.891 25.716 110.486 26.213 110.486 26.7963V26.8115C110.486 27.3998 110.907 27.907 111.531 27.907C112.154 27.907 112.56 27.41 112.56 26.8267Z" fill="white"/>
<path d="M113.862 24.8121H115.003L115.643 27.2212L116.393 24.7969H117.367L118.123 27.2263L118.777 24.807H119.898L118.66 28.8087H117.646L116.88 26.3691L116.104 28.8087H115.095L113.872 24.807L113.862 24.8121Z" fill="white"/>
<path d="M119.569 29.5238C120.082 29.4731 120.335 29.2144 120.295 28.7884H119.833V27.6016H121.035V28.6007C121.035 29.5796 120.543 29.9701 119.666 29.9853L119.569 29.5187V29.5238Z" fill="white"/>
<path d="M123.815 27.6644V25.7827H123.338V24.8191H123.815V23.8047H124.941V24.8191H125.874V25.7827H124.941V27.4818C124.941 27.7404 125.052 27.8672 125.306 27.8672C125.514 27.8672 125.701 27.8165 125.864 27.7252V28.628C125.625 28.77 125.351 28.8563 124.976 28.8563C124.286 28.8563 123.82 28.5824 123.82 27.6644H123.815Z" fill="white"/>
<path d="M126.219 26.8267V26.8115C126.219 25.6703 127.137 24.7422 128.374 24.7422C129.612 24.7422 130.515 25.6551 130.515 26.7963V26.8115C130.515 27.9527 129.597 28.8808 128.359 28.8808C127.122 28.8808 126.219 27.9679 126.219 26.8267ZM129.409 26.8267V26.8115C129.409 26.2282 128.988 25.716 128.364 25.716C127.74 25.716 127.335 26.213 127.335 26.7963V26.8115C127.335 27.3998 127.756 27.907 128.379 27.907C129.003 27.907 129.409 27.41 129.409 26.8267Z" fill="white"/>
<path d="M130.859 26.8086V26.7934C130.859 25.4646 131.727 24.7393 132.67 24.7393C133.268 24.7393 133.644 25.0132 133.908 25.3327V23.375H135.033V28.7867H133.908V28.2135C133.634 28.5838 133.253 28.8577 132.67 28.8577C131.742 28.8577 130.859 28.1324 130.859 26.8036V26.8086ZM133.923 26.8086V26.7934C133.923 26.1341 133.487 25.6979 132.959 25.6979C132.432 25.6979 131.99 26.129 131.99 26.7934V26.8086C131.99 27.468 132.437 27.9042 132.959 27.9042C133.482 27.9042 133.923 27.468 133.923 26.8086Z" fill="white"/>
<path d="M135.51 27.6464V27.6312C135.51 26.7639 136.169 26.3633 137.112 26.3633C137.513 26.3633 137.802 26.4292 138.086 26.5256V26.4596C138.086 25.993 137.797 25.7343 137.234 25.7343C136.803 25.7343 136.499 25.8155 136.139 25.9474L135.855 25.0852C136.291 24.8924 136.722 24.7656 137.396 24.7656C138.01 24.7656 138.457 24.9279 138.741 25.2119C139.035 25.5061 139.172 25.9474 139.172 26.4799V28.7876H138.081V28.3565C137.807 28.6608 137.427 28.8586 136.879 28.8586C136.129 28.8586 135.515 28.4275 135.515 27.6414L135.51 27.6464ZM138.096 27.3878V27.19C137.904 27.0987 137.65 27.0429 137.376 27.0429C136.894 27.0429 136.6 27.2356 136.6 27.5906V27.6059C136.6 27.9102 136.854 28.0877 137.214 28.0877C137.741 28.0877 138.096 27.7986 138.096 27.3928V27.3878Z" fill="white"/>
<path d="M139.786 29.7248L140.166 28.9082C140.313 28.9995 140.501 29.0655 140.648 29.0655C140.841 29.0655 140.942 29.0046 141.038 28.8068L139.481 24.8203H140.673L141.576 27.5287L142.443 24.8203H143.615L142.088 28.893C141.784 29.6994 141.459 30.0037 140.785 30.0037C140.379 30.0037 140.075 29.9023 139.786 29.7299V29.7248Z" fill="white"/>
<path d="M143.265 27.6016H144.467V28.7884H143.265V27.6016Z" fill="white"/>
</g>
<defs>
<clipPath id="clip0_576_3370">
<rect width="217" height="30" fill="white"/>
</clipPath>
</defs>
</svg>
